<?xml version="1.0" encoding="utf-8"?>
<!-- Generator: Adobe Illustrator 21.0.2, SVG Export Plug-In . SVG Version: 6.00 Build 0)  -->
<svg version="1.1" id="Layer_1" xmlns="http://www.w3.org/2000/svg" xmlns:xlink="http://www.w3.org/1999/xlink" x="0px" y="0px"
	 viewBox="0 0 28 20" style="enable-background:new 0 0 28 20;" xml:space="preserve">
<title>-g-_ico_avion</title>
<desc>Created with Sketch.</desc>
<path d="M24.7,6.9h-5.4L13,0.5c-0.1-0.1-0.2-0.1-0.4-0.1H7.9c-0.2,0-0.4,0.1-0.5,0.3c-0.1,0.2,0,0.4,0.1,0.5l5.7,5.7H7.7L5,4.2
	C4.9,4.2,4.8,4.1,4.7,4.1H0.5c-0.2,0-0.3,0.1-0.4,0.2C0,4.5,0,4.6,0,4.8l3.3,7.4c0.1,0.2,0.3,0.3,0.5,0.3h8.6l-6.6,6.6
	c-0.1,0.1-0.2,0.4-0.1,0.5C5.7,19.9,5.9,20,6.1,20h4.7c0.1,0,0.2,0,0.3-0.1l8.7-7.3h4.9c2,0,3.3-1.1,3.3-2.8C28,8,26.7,6.9,24.7,6.9
	z M9.2,1.4h3.2l5.5,5.5h-3.2L9.2,1.4z M24.7,11.6h-5.1c-0.1,0-0.2,0-0.3,0.1L10.6,19H7.3l6.6-6.6c0.1-0.1,0.2-0.4,0.1-0.5
	c-0.1-0.2-0.3-0.3-0.5-0.3H4.1L1.3,5.1h3.2l2.6,2.6c0.1,0.1,0.2,0.1,0.4,0.1h17.2c1.1,0,2.3,0.5,2.3,1.8
	C27,11.1,25.8,11.6,24.7,11.6z"/>
</svg>
