<?xml version="1.0" encoding="UTF-8" standalone="no"?>
<svg width="109px" height="73px" viewBox="0 0 109 73" version="1.1" xmlns="http://www.w3.org/2000/svg" xmlns:xlink="http://www.w3.org/1999/xlink">
    <!-- Generator: Sketch 42 (36781) - http://www.bohemiancoding.com/sketch -->
    <title>-g-_card_master</title>
    <desc>Created with Sketch.</desc>
    <defs>
        <rect id="path-1" x="51" y="101" width="952" height="670" rx="5"></rect>
        <mask id="mask-2" maskContentUnits="userSpaceOnUse" maskUnits="objectBoundingBox" x="0" y="0" width="952" height="670" fill="white">
            <use xlink:href="#path-1"></use>
        </mask>
        <polygon id="path-3" points="0 67 104.1 67 104.1 0 0 0"></polygon>
    </defs>
    <g id="Desktop" stroke="none" stroke-width="1" fill="none" fill-rule="evenodd">
        <g id="0.-Landing-bienvenida" transform="translate(-231.000000, -461.000000)">
            <use id="Rectangle-288" stroke="#DCDCDC" mask="url(#mask-2)" stroke-width="2" fill="#FFFFFF" xlink:href="#path-1"></use>
            <path d="M52,105.992835 C52,103.235368 54.2372881,101 56.9941167,101 L360,101 L360,769 L56.9941167,769 C54.2359422,769 52,766.760375 52,764.007165 L52,105.992835 Z" id="side-bar" fill="#F4F4F4"></path>
            <g id="_tarjetas" transform="translate(76.000000, 404.333333)">
                <g id="Master" transform="translate(158.000000, 59.000000)">
                    <path d="M98.2002,67 L5.8002,67 C2.6002,67 0.0002,64.7 0.0002,61.9 L0.0002,5.1 C0.0002,2.3 2.6002,0 5.8002,0 L98.3002,0 C101.5002,0 104.0992,2.3 104.0992,5.1 L104.0992,61.8 C104.0002,64.7 101.4002,67 98.2002,67 Z" id="Fill-1" fill="#A9ADAA"></path>
                    <mask id="mask-4" fill="white">
                        <use xlink:href="#path-3"></use>
                    </mask>
                    <g id="Clip-4"></g>
                    <polygon id="Fill-3" fill="#666666" mask="url(#mask-4)" points="0 20.8 104 20.8 104 8 0 8"></polygon>
                    <path d="M23.8999,31.8999 L9.5999,31.8999 C8.6999,31.8999 7.9999,31.1999 7.9999,30.2999 C7.9999,29.3999 8.6999,28.6999 9.5999,28.6999 L23.8999,28.6999 C24.7999,28.6999 25.4999,29.3999 25.4999,30.2999 C25.4999,31.1999 24.7999,31.8999 23.8999,31.8999" id="Fill-5" fill="#666666" mask="url(#mask-4)"></path>
                    <path d="M44.6001,31.8999 L30.2001,31.8999 C29.3001,31.8999 28.6001,31.1999 28.6001,30.2999 C28.6001,29.3999 29.3001,28.6999 30.2001,28.6999 L44.5001,28.6999 C45.4001,28.6999 46.1001,29.3999 46.1001,30.2999 C46.1001,31.1999 45.5001,31.8999 44.6001,31.8999" id="Fill-6" fill="#666666" mask="url(#mask-4)"></path>
                    <path d="M11.1001,39.9004 L9.6001,39.9004 C8.7001,39.9004 8.0001,39.2004 8.0001,38.2994 C8.0001,37.4004 8.7001,36.7004 9.6001,36.7004 L11.2001,36.7004 C12.1001,36.7004 12.8001,37.4004 12.8001,38.2994 C12.7001,39.2004 12.0001,39.9004 11.1001,39.9004" id="Fill-7" fill="#666666" mask="url(#mask-4)"></path>
                    <path d="M20.7002,39.9004 L17.5002,39.9004 C16.6002,39.9004 15.9002,39.2004 15.9002,38.2994 C15.9002,37.4004 16.6002,36.7004 17.5002,36.7004 L20.7002,36.7004 C21.6002,36.7004 22.3002,37.4004 22.3002,38.2994 C22.3002,39.2004 21.6002,39.9004 20.7002,39.9004" id="Fill-8" fill="#666666" mask="url(#mask-4)"></path>
                    <path d="M28.7002,39.9004 L27.1002,39.9004 C26.2002,39.9004 25.5002,39.2004 25.5002,38.2994 C25.5002,37.4004 26.2002,36.7004 27.1002,36.7004 L28.7002,36.7004 C29.6002,36.7004 30.3002,37.4004 30.3002,38.2994 C30.2002,39.2004 29.5002,39.9004 28.7002,39.9004" id="Fill-9" fill="#666666" mask="url(#mask-4)"></path>
                    <path d="M38.2002,39.9004 L35.0002,39.9004 C34.1002,39.9004 33.4002,39.2004 33.4002,38.2994 C33.4002,37.4004 34.1002,36.7004 35.0002,36.7004 L38.2002,36.7004 C39.1002,36.7004 39.8002,37.4004 39.8002,38.2994 C39.8002,39.2004 39.1002,39.9004 38.2002,39.9004" id="Fill-10" fill="#666666" mask="url(#mask-4)"></path>
                    <path d="M44.6001,39.9004 C44.2001,39.9004 43.8001,39.7004 43.5001,39.4004 C43.2001,39.0994 43.0001,38.7004 43.0001,38.2994 C43.0001,37.9004 43.2001,37.5004 43.5001,37.2004 C44.1001,36.5994 45.2001,36.5994 45.8001,37.2004 C46.1001,37.5004 46.3001,37.9004 46.3001,38.2994 C46.3001,38.7004 46.1001,39.0994 45.8001,39.4004 C45.4001,39.7004 45.0001,39.9004 44.6001,39.9004" id="Fill-11" fill="#666666" mask="url(#mask-4)"></path>
                    <path d="M89.9004,54.7998 C89.9004,58.6998 86.7004,61.9008 82.7994,61.9008 C78.9004,61.9008 75.7004,58.6998 75.7004,54.7998 C75.7004,50.9008 78.9004,47.6998 82.7994,47.6998 C86.7004,47.6998 89.9004,50.9008 89.9004,54.7998" id="Fill-12" fill="#E74C3D" mask="url(#mask-4)"></path>
                    <path d="M98.2002,54.7998 C98.2002,58.6998 95.0002,61.9008 91.0992,61.9008 C87.2002,61.9008 84.0002,58.7998 84.0002,54.7998 C84.0002,50.7998 87.2002,47.6998 91.0992,47.6998 C95.0002,47.6998 98.2002,50.9008 98.2002,54.7998" id="Fill-13" fill="#F0C41B" mask="url(#mask-4)"></path>
                </g>
            </g>
        </g>
    </g>
</svg>