<?xml version="1.0" encoding="utf-8"?>
<!-- Generator: Adobe Illustrator 21.0.2, SVG Export Plug-In . SVG Version: 6.00 Build 0)  -->
<svg version="1.1" id="Layer_1" xmlns="http://www.w3.org/2000/svg" xmlns:xlink="http://www.w3.org/1999/xlink" x="0px" y="0px"
	 viewBox="0 0 28 28" style="enable-background:new 0 0 28 28;" xml:space="preserve">
<title>-g-_ico_discount</title>
<desc>Created with Sketch.</desc>
<g>
	<path d="M14,0C6.3,0,0,6.3,0,14s6.3,14,14,14s14-6.3,14-14S21.7,0,14,0z M14,27C6.8,27,1,21.2,1,14S6.8,1,14,1s13,5.8,13,13
		S21.2,27,14,27z"/>
	<path d="M18.4,9.6c-0.1-0.1-0.2-0.2-0.4-0.2c-0.1,0-0.3,0.1-0.4,0.2l-8.2,8.2c-0.2,0.2-0.2,0.6,0,0.8c0.2,0.2,0.6,0.2,0.8,0
		l8.2-8.2C18.6,10.1,18.6,9.8,18.4,9.6z"/>
	<path d="M17.1,14.4c-0.6,0-1.2,0.2-1.6,0.7c-0.9,0.9-0.9,2.3,0,3.2c0.4,0.4,1,0.7,1.6,0.7s1.2-0.2,1.6-0.7c0.9-0.9,0.9-2.3,0-3.2
		C18.3,14.7,17.7,14.4,17.1,14.4z M17.9,17.5c-0.2,0.2-0.5,0.3-0.8,0.3s-0.6-0.1-0.8-0.3c-0.5-0.5-0.5-1.2,0-1.7
		c0.4-0.4,1.2-0.4,1.7,0C18.4,16.3,18.4,17.1,17.9,17.5z"/>
	<path d="M10.9,13.6c0.6,0,1.2-0.2,1.6-0.7c0.4-0.4,0.7-1,0.7-1.6s-0.2-1.2-0.7-1.6c-0.4-0.4-1-0.7-1.6-0.7S9.7,9.2,9.3,9.7
		c-0.4,0.4-0.7,1-0.7,1.6s0.2,1.2,0.7,1.6C9.8,13.3,10.3,13.6,10.9,13.6z M10.1,10.5c0.4-0.4,1.2-0.4,1.7,0c0.2,0.2,0.3,0.5,0.3,0.8
		s-0.1,0.6-0.3,0.8s-0.5,0.3-0.8,0.3s-0.6-0.1-0.8-0.3s-0.3-0.5-0.3-0.8C9.7,11,9.9,10.7,10.1,10.5z"/>
</g>
</svg>
