<?xml version="1.0" encoding="utf-8"?>
<!-- Generator: Adobe Illustrator 21.0.2, SVG Export Plug-In . SVG Version: 6.00 Build 0)  -->
<svg version="1.1" id="Layer_1" xmlns="http://www.w3.org/2000/svg" xmlns:xlink="http://www.w3.org/1999/xlink" x="0px" y="0px"
	 viewBox="0 0 23 27" style="enable-background:new 0 0 23 27;" xml:space="preserve">
<title>-g-_ico_regalo</title>
<desc>Created with Sketch.</desc>
<path d="M21.6,8h-4.2c1.3-0.5,2.4-1.2,2.9-2.2c0.5-1.1,0.4-2.4-0.5-3.9c-0.1-0.1-1.5-2.1-3.6-1.8c-1.7,0.2-3.3,1.9-4.7,4.9
	c-1.4-3.1-3-4.7-4.7-4.9C4.7-0.2,3.2,1.7,3.2,1.9C2.3,3.3,2.1,4.7,2.7,5.8c0.5,1,1.6,1.7,2.9,2.2H1.4C0.6,8,0,8.6,0,9.4v3
	c0,0.6,0.3,1,0.8,1.3v12c0,0.8,0.6,1.4,1.4,1.4h18.6c0.8,0,1.4-0.6,1.4-1.4v-12c0.5-0.2,0.8-0.7,0.8-1.3v-3C23,8.6,22.4,8,21.6,8z
	 M11.9,6.2c1.3-3.3,2.9-5.1,4.4-5.3c1.6-0.2,2.7,1.4,2.7,1.4c0.7,1.2,0.9,2.2,0.5,3c-0.6,1.3-2.8,2.2-6,2.6c0,0,0,0-0.1,0h-1.5V6.2z
	 M3.5,5.4c-0.4-0.8-0.2-1.8,0.5-3c0,0,1.2-1.6,2.7-1.4c1.5,0.2,3,2,4.4,5.3V8H9.7C6.3,7.6,4.1,6.7,3.5,5.4z M11.2,26.1h-9
	c-0.3,0-0.5-0.2-0.5-0.5v-5.2h9.5V26.1z M11.2,19.5H1.7v-5.7h9.5V19.5z M21.3,25.6c0,0.3-0.2,0.5-0.5,0.5h-8.7v-5.7h9.2V25.6z
	 M21.3,19.5h-9.2v-5.7h9.2V19.5z M22.1,12.4c0,0.3-0.2,0.5-0.5,0.5H1.4c-0.3,0-0.5-0.2-0.5-0.5v-3c0-0.3,0.2-0.5,0.5-0.5h20.3
	c0.3,0,0.5,0.2,0.5,0.5V12.4z"/>
</svg>
