<?xml version="1.0" encoding="UTF-8" standalone="no"?>
<svg width="362px" height="78px" viewBox="0 0 362 78" version="1.1" xmlns="http://www.w3.org/2000/svg" xmlns:xlink="http://www.w3.org/1999/xlink">
    <!-- Generator: Sketch 41.2 (35397) - http://www.bohemiancoding.com/sketch -->
    <title>-g-BBVA</title>
    <desc>Created with Sketch.</desc>
    <defs></defs>
    <g id="Symbols" stroke="none" stroke-width="1" fill="none" fill-rule="evenodd">
        <g id="Nav---Home" transform="translate(-221.000000, -21.000000)" fill="#094FA4">
            <g id="BBVA" transform="translate(221.000000, 21.000000)">
                <path d="M124.931699,17.1259801 L117.101054,17.1259801 L104.563885,58.7890871 L110.949209,58.7890871 L113.640798,49.8180804 L128.532794,49.8180804 L131.238779,58.7890871 L142.341895,58.7890871 L129.913015,21.3549325 C128.777541,17.930646 128.139697,17.1259801 124.931699,17.1259801 Z M115.432269,43.6856856 L121.035155,24.6709965 L126.710025,43.6856856 L115.432269,43.6856856 Z M102.936206,17.1259801 L93.5862166,48.7715854 L85.721568,22.55576 C84.2469859,17.8592009 83.4976704,17.1259801 80.6681182,17.1259801 L73.3559632,17.1259801 L86.9100938,58.7890871 L96.8632063,58.7890871 L109.491451,17.1259801 L102.936206,17.1259801 Z M68.6072344,30.4387044 C72.8193268,24.0549849 69.920629,17.1259801 61.5856253,17.1259801 L43.7905639,17.1259801 L43.7905639,58.7890871 L60.9507555,58.7890871 C76.0410724,58.7890871 80.5599977,40.8589351 66.6034659,33.4552711 L68.6072344,30.4387044 Z M56.3021123,53.2255225 L53.3996725,53.2255225 L53.3996725,22.5540187 L58.6451432,22.5540187 C61.1709019,22.5540187 63.3492908,24.679168 63.3492908,27.2465265 C63.3492908,28.1525782 63.1840252,28.9962752 62.3196544,30.262457 L58.9201703,35.467164 C62.4774364,36.3356756 64.8547678,39.1021874 64.8547678,44.2680818 C64.8547678,50.5499977 61.1709019,53.2255225 56.3021123,53.2255225 Z M32.1004027,33.4552711 L34.0881349,30.4387044 C38.3173655,24.0549849 35.4199404,17.1259801 27.0649808,17.1259801 L9.297598,17.1259801 L9.297598,58.7890871 L26.4551934,58.7890871 C41.5265429,58.7890871 46.087478,40.8589351 32.1004027,33.4552711 Z M21.8019797,53.2255225 L18.9238832,53.2255225 L18.9238832,22.5540187 L24.1426154,22.5540187 C26.6715495,22.5540187 28.8675321,24.679168 28.8675321,27.2465265 C28.8675321,28.1525782 28.704174,28.9962752 27.8256562,30.262457 L24.4076048,35.467164 C27.9759208,36.3356756 30.3502257,39.1021874 30.3502257,44.2680818 C30.3502257,50.5499977 26.6715495,53.2255225 21.8019797,53.2255225 Z" id="Combined-Shape"></path>
                <path d="M165.15625,59 L165.15625,16.9882812 L190.175781,16.9882812 L190.175781,19.7128906 L168.349609,19.7128906 L168.349609,37.0859375 L184.550781,37.0859375 L184.550781,39.7519531 L168.349609,39.7519531 L168.349609,59 L165.15625,59 Z M195.522843,33.1308594 C196.128315,32.4081995 196.792371,31.7099643 197.515031,31.0361328 C198.23769,30.3623013 199.028698,29.7617214 199.888077,29.234375 C200.747457,28.7070286 201.665416,28.2871109 202.641984,27.9746094 C203.618551,27.6621078 204.663463,27.5058594 205.776749,27.5058594 C206.167376,27.5058594 206.489639,27.5253904 206.743546,27.5644531 C206.997454,27.6035158 207.153702,27.6425779 207.212296,27.6816406 L207.212296,30.1425781 C207.075577,30.1425781 206.929094,30.1328126 206.772843,30.1132812 C206.636124,30.1132812 206.489641,30.1083985 206.33339,30.0986328 C206.177139,30.0888671 206.030656,30.0839844 205.893937,30.0839844 C204.761119,30.0839844 203.701559,30.2499983 202.715226,30.5820312 C201.728893,30.9140642 200.806051,31.3583957 199.946671,31.9150391 C199.087292,32.4716825 198.291401,33.101559 197.558976,33.8046875 C196.82655,34.507816 196.147846,35.230465 195.522843,35.9726562 L195.522843,59 L192.505265,59 L192.505265,27.7402344 L193.911515,27.7402344 C194.243548,27.7402344 194.5121,27.7744137 194.717179,27.8427734 C194.922258,27.9111332 195.083389,28.0624988 195.200577,28.296875 C195.317766,28.5312512 195.400773,28.8779274 195.449601,29.3369141 C195.498429,29.7959007 195.522843,30.4062462 195.522843,31.1679688 L195.522843,33.1308594 Z M229.346467,54.7519531 C228.682402,55.4355503 227.998815,56.060544 227.295686,56.6269531 C226.592558,57.1933622 225.816198,57.671873 224.966585,58.0625 C224.116971,58.453127 223.174598,58.7558583 222.139436,58.9707031 C221.104275,59.1855479 219.942177,59.2929688 218.653108,59.2929688 C217.207788,59.2929688 215.869911,59.0976582 214.639436,58.7070312 C213.408961,58.3164043 212.344519,57.7402382 211.446077,56.9785156 C210.547635,56.2167931 209.844517,55.2695369 209.336702,54.1367188 C208.828887,53.0039006 208.574983,51.7050854 208.574983,50.2402344 C208.574983,48.6581952 208.88748,47.2910214 209.512483,46.1386719 C210.137486,44.9863224 211.006618,44.0341834 212.119905,43.2822266 C213.233192,42.5302697 214.556421,41.9736346 216.089632,41.6123047 C217.622842,41.2509748 219.29763,41.0703125 221.114046,41.0703125 C222.637491,41.0703125 224.06814,41.143554 225.406038,41.2900391 C226.743935,41.4365242 228.057399,41.6757796 229.346467,42.0078125 L229.346467,36.3828125 C229.346467,35.1718689 229.160922,34.1464886 228.789827,33.3066406 C228.418731,32.4667927 227.896276,31.7880885 227.222444,31.2705078 C226.548613,30.7529271 225.738074,30.3769543 224.790803,30.1425781 C223.843533,29.908202 222.803504,29.7910156 221.670686,29.7910156 C219.346456,29.7910156 217.39335,30.0546849 215.811311,30.5820312 C214.229272,31.1093776 212.940222,31.763668 211.944124,32.5449219 L210.684358,32.5449219 L210.684358,30.0839844 C211.309361,29.7324201 212.002714,29.3955094 212.764436,29.0732422 C213.526159,28.750975 214.361111,28.4677747 215.269319,28.2236328 C216.177527,27.979491 217.173611,27.7792977 218.2576,27.6230469 C219.34159,27.4667961 220.518336,27.3886719 221.787874,27.3886719 C223.369913,27.3886719 224.810328,27.5449203 226.109163,27.8574219 C227.407997,28.1699234 228.521268,28.6728481 229.449007,29.3662109 C230.376746,30.0595738 231.089629,30.9677678 231.587678,32.0908203 C232.085728,33.2138728 232.334749,34.5859294 232.334749,36.2070312 L232.334749,59 L231.514436,59 C231.065215,59 230.703891,58.9609379 230.430452,58.8828125 C230.157013,58.8046871 229.937289,58.6533214 229.771272,58.4287109 C229.605256,58.2041004 229.492952,57.8916036 229.434358,57.4912109 C229.375764,57.0908183 229.346467,56.5781281 229.346467,55.953125 L229.346467,54.7519531 Z M219.092561,56.9492188 C220.342567,56.9492188 221.465603,56.8222669 222.461702,56.5683594 C223.457801,56.3144519 224.365995,55.9628929 225.186311,55.5136719 C226.006628,55.0644509 226.748808,54.5273469 227.412874,53.9023438 C228.07694,53.2773406 228.721464,52.5937537 229.346467,51.8515625 L229.346467,44.1757812 C228.135524,43.9023424 226.870888,43.6728525 225.552522,43.4873047 C224.234156,43.3017569 222.823038,43.2089844 221.319124,43.2089844 C219.932398,43.2089844 218.648231,43.3359362 217.466585,43.5898438 C216.284938,43.8437513 215.264441,44.2490207 214.405061,44.8056641 C213.545682,45.3623075 212.871861,46.0703082 212.383577,46.9296875 C211.895293,47.7890668 211.651155,48.8144472 211.651155,50.0058594 C211.651155,51.2558656 211.841583,52.3203081 212.222444,53.1992188 C212.603305,54.0781294 213.125761,54.7958957 213.789827,55.3525391 C214.453893,55.9091825 215.240018,56.3144519 216.148225,56.5683594 C217.056433,56.8222669 218.037868,56.9492188 219.092561,56.9492188 Z M243.043139,32.7207031 C243.922049,32.0175746 244.874188,31.3437532 245.899584,30.6992188 C246.92498,30.0546843 248.013836,29.4882837 249.166186,29 C250.318535,28.5117163 251.529461,28.1210952 252.798998,27.828125 C254.068536,27.5351548 255.396647,27.3886719 256.783373,27.3886719 C257.877129,27.3886719 258.912274,27.5156237 259.888842,27.7695312 C260.865409,28.0234388 261.724776,28.4677703 262.466967,29.1025391 C263.209158,29.7373079 263.79509,30.5869087 264.224779,31.6513672 C264.654469,32.7158256 264.869311,34.0683512 264.869311,35.7089844 L264.869311,59 L261.881029,59 L261.881029,36.0898438 C261.881029,34.8398375 261.719898,33.8144571 261.397631,33.0136719 C261.075364,32.2128866 260.635915,31.5830101 260.079272,31.1240234 C259.522628,30.6650368 258.863455,30.3476571 258.101732,30.171875 C257.34001,29.9960929 256.519706,29.9082031 255.640795,29.9082031 C254.488445,29.9082031 253.350762,30.054686 252.227709,30.3476562 C251.104657,30.6406265 250.010918,31.0361303 248.946459,31.5341797 C247.882001,32.0322291 246.851737,32.5986296 245.855639,33.2333984 C244.85954,33.8681672 243.922049,34.5175748 243.043139,35.1816406 L243.043139,59 L240.025561,59 L240.025561,27.7402344 L241.431811,27.7402344 C241.763844,27.7402344 242.032396,27.7744137 242.237475,27.8427734 C242.442554,27.9111332 242.603685,28.0527333 242.720873,28.2675781 C242.838061,28.4824229 242.921068,28.7949198 242.969897,29.2050781 C243.018725,29.6152364 243.043139,30.162106 243.043139,30.8457031 L243.043139,32.7207031 Z M284.806216,59.234375 C282.521049,59.234375 280.470288,58.863285 278.653872,58.1210938 C276.837457,57.3789025 275.304269,56.3193428 274.054263,54.9423828 C272.804257,53.5654228 271.847235,51.8906349 271.183169,49.9179688 C270.519104,47.9453026 270.187076,45.7285279 270.187076,43.2675781 C270.187076,40.8066283 270.5484,38.5947364 271.27106,36.6318359 C271.99372,34.6689355 273.009335,33.0039131 274.317935,31.6367188 C275.626535,30.2695244 277.18902,29.2197302 279.005435,28.4873047 C280.82185,27.7548792 282.814018,27.3886719 284.981997,27.3886719 C286.271066,27.3886719 287.423399,27.4765616 288.439029,27.6523438 C289.454659,27.8281259 290.35797,28.0576158 291.14899,28.3408203 C291.940009,28.6240249 292.628479,28.9462873 293.214419,29.3076172 C293.80036,29.6689471 294.317933,30.0253889 294.767154,30.3769531 L294.767154,32.7792969 L293.214419,32.7792969 C292.862855,32.4277326 292.438055,32.0712909 291.940005,31.7099609 C291.441956,31.348631 290.860907,31.0263686 290.196841,30.7431641 C289.532775,30.4599595 288.766182,30.2304696 287.897037,30.0546875 C287.027892,29.8789054 286.036691,29.7910156 284.923404,29.7910156 C283.185114,29.7910156 281.598216,30.093747 280.162662,30.6992188 C278.727107,31.3046905 277.496651,32.183588 276.471255,33.3359375 C275.44586,34.488287 274.649969,35.8994057 274.08356,37.5693359 C273.517151,39.2392662 273.233951,41.1386612 273.233951,43.2675781 C273.233951,45.4160264 273.502503,47.3300697 274.039615,49.0097656 C274.576727,50.6894615 275.348203,52.1103458 276.354068,53.2724609 C277.359932,54.4345761 278.585506,55.3183563 280.030826,55.9238281 C281.476145,56.5292999 283.106988,56.8320312 284.923404,56.8320312 C286.134347,56.8320312 287.218321,56.7197277 288.175357,56.4951172 C289.132393,56.2705067 289.977111,55.9873064 290.709537,55.6455078 C291.441962,55.3037092 292.071839,54.9179709 292.599185,54.4882812 C293.126531,54.0585916 293.575746,53.6386739 293.946841,53.2285156 L295.323794,53.2285156 L295.323794,55.5136719 C294.874573,55.9433615 294.332587,56.3779275 293.697818,56.8173828 C293.063049,57.2568381 292.311103,57.6572248 291.441958,58.0185547 C290.572813,58.3798846 289.586495,58.6728504 288.482974,58.8974609 C287.379453,59.1220714 286.153879,59.234375 284.806216,59.234375 Z M301.315387,43.4726562 C301.315387,47.8867408 302.316354,51.2070201 304.318317,53.4335938 C306.32028,55.6601674 309.284118,56.7734375 313.209919,56.7734375 C314.459925,56.7734375 315.587843,56.6855478 316.593708,56.5097656 C317.599572,56.3339835 318.502883,56.0947281 319.303669,55.7919922 C320.104454,55.4892563 320.802689,55.1425801 321.398395,54.7519531 C321.994101,54.3613262 322.497026,53.9609396 322.907184,53.5507812 L324.225544,53.5507812 L324.225544,55.7480469 C323.678666,56.1972679 323.048789,56.6269511 322.335895,57.0371094 C321.623001,57.4472677 320.802697,57.8183577 319.874958,58.1503906 C318.947219,58.4824235 317.90719,58.7460928 316.754841,58.9414062 C315.602491,59.1367197 314.313441,59.234375 312.887653,59.234375 C310.543891,59.234375 308.463834,58.8681677 306.647419,58.1357422 C304.831003,57.4033167 303.302698,56.3535225 302.062458,54.9863281 C300.822217,53.6191338 299.879844,51.9638769 299.235309,50.0205078 C298.590775,48.0771387 298.268512,45.8945434 298.268512,43.4726562 C298.268512,41.0117064 298.615189,38.790049 299.308552,36.8076172 C300.001914,34.8251854 300.963819,33.1357492 302.194294,31.7392578 C303.424769,30.3427665 304.889598,29.2685584 306.588825,28.5166016 C308.288052,27.7646447 310.133737,27.3886719 312.125934,27.3886719 C314.040006,27.3886719 315.788036,27.6718722 317.370075,28.2382812 C318.952114,28.8046903 320.30464,29.6835878 321.427692,30.875 C322.550745,32.0664122 323.419877,33.5849517 324.035114,35.4306641 C324.650352,37.2763764 324.957966,39.4687373 324.957966,42.0078125 C324.957966,42.3203141 324.9482,42.6230454 324.928669,42.9160156 C324.909137,43.2089858 324.899372,43.3945309 324.899372,43.4726562 L301.315387,43.4726562 Z M312.125934,29.6738281 C310.680615,29.6738281 309.342737,29.9130835 308.112262,30.3916016 C306.881788,30.8701196 305.797814,31.5878858 304.860309,32.5449219 C303.922805,33.5019579 303.151328,34.7031178 302.545856,36.1484375 C301.940384,37.5937572 301.549763,39.2734279 301.373981,41.1875 L321.969684,41.1875 C321.91109,39.0976458 321.637656,37.3252026 321.149372,35.8701172 C320.661088,34.4150318 319.99215,33.2285202 319.142536,32.3105469 C318.292922,31.3925735 317.272425,30.7236349 316.081012,30.3037109 C314.8896,29.883787 313.571254,29.6738281 312.125934,29.6738281 Z M311.04195,24.6054688 L311.04195,23.6679688 L315.524372,16.9882812 L318.54195,16.9882812 L318.54195,18.1894531 L312.887653,24.6054688 L311.04195,24.6054688 Z M338.273777,59.234375 C336.926114,59.234375 335.729837,59.1416025 334.68491,58.9560547 C333.639983,58.7705069 332.712258,58.5361342 331.901707,58.2529297 C331.091156,57.9697251 330.383156,57.6572283 329.777684,57.3154297 C329.172212,56.9736311 328.644873,56.6367204 328.195652,56.3046875 L328.195652,53.84375 L329.396824,53.84375 C329.76792,54.1953143 330.222017,54.551756 330.759129,54.9130859 C331.296241,55.2744159 331.926118,55.601561 332.648777,55.8945312 C333.371437,56.1875015 334.186859,56.4267569 335.095067,56.6123047 C336.003274,56.7978525 337.023772,56.890625 338.15659,56.890625 C341.047229,56.890625 343.18588,56.3144589 344.572606,55.1621094 C345.959331,54.0097599 346.652684,52.3496202 346.652684,50.1816406 C346.652684,49.2636673 346.515966,48.4726596 346.242527,47.8085938 C345.969089,47.1445279 345.505226,46.5732446 344.850926,46.0947266 C344.196626,45.6162085 343.332377,45.2109392 342.258152,44.8789062 C341.183928,44.5468733 339.855817,44.2539075 338.273777,44 C336.769864,43.7656238 335.417338,43.4433614 334.21616,43.0332031 C333.014982,42.6230448 331.989602,42.0957063 331.139988,41.4511719 C330.290375,40.8066374 329.636084,40.0107469 329.177098,39.0634766 C328.718111,38.1162062 328.488621,36.9785223 328.488621,35.6503906 C328.488621,34.3027276 328.742525,33.1162161 329.25034,32.0908203 C329.758155,31.0654246 330.471039,30.2011754 331.389012,29.4980469 C332.306985,28.7949184 333.41049,28.2675799 334.699559,27.9160156 C335.988628,27.5644514 337.414395,27.3886719 338.976902,27.3886719 C340.109721,27.3886719 341.139984,27.4570306 342.067723,27.59375 C342.995462,27.7304694 343.830414,27.9111317 344.572606,28.1357422 C345.314797,28.3603527 345.969087,28.6093736 346.535496,28.8828125 C347.101905,29.1562514 347.609713,29.4394517 348.058934,29.7324219 L348.058934,32.1933594 L346.857762,32.1933594 C346.428072,31.8417951 345.969092,31.51465 345.480809,31.2119141 C344.992525,30.9091782 344.440773,30.6503917 343.825535,30.4355469 C343.210298,30.2207021 342.512063,30.0498053 341.730809,29.9228516 C340.949555,29.7958978 340.051126,29.7324219 339.035496,29.7324219 C336.47689,29.7324219 334.548198,30.20605 333.249363,31.1533203 C331.950529,32.1005907 331.301121,33.5214749 331.301121,35.4160156 C331.301121,36.3144576 331.442721,37.0859343 331.725926,37.7304688 C332.00913,38.3750032 332.472993,38.9267555 333.117527,39.3857422 C333.762062,39.8447289 334.601897,40.23535 335.637059,40.5576172 C336.67222,40.8798844 337.951504,41.1679675 339.474949,41.421875 C341.115583,41.6757825 342.565763,42.0029277 343.825535,42.4033203 C345.085307,42.8037129 346.144867,43.3310514 347.004246,43.9853516 C347.863626,44.6396517 348.513033,45.4501905 348.952488,46.4169922 C349.391944,47.3837939 349.611668,48.5605399 349.611668,49.9472656 C349.611668,51.3925854 349.387061,52.6865177 348.93784,53.8291016 C348.488619,54.9716854 347.800149,55.9433554 346.87241,56.7441406 C345.944671,57.5449259 344.767925,58.1601541 343.342137,58.5898438 C341.916348,59.0195334 340.226912,59.234375 338.273777,59.234375 Z" id="Francés"></path>
            </g>
        </g>
    </g>
</svg>