<?xml version="1.0" encoding="UTF-8" standalone="no"?>
<svg width="112px" height="72px" viewBox="0 0 112 72" version="1.1" xmlns="http://www.w3.org/2000/svg" xmlns:xlink="http://www.w3.org/1999/xlink">
    <!-- Generator: Sketch 42 (36781) - http://www.bohemiancoding.com/sketch -->
    <title>-g-card_visa</title>
    <desc>Created with Sketch.</desc>
    <defs>
        <rect id="path-1" x="51" y="101" width="952" height="670" rx="5"></rect>
        <mask id="mask-2" maskContentUnits="userSpaceOnUse" maskUnits="objectBoundingBox" x="0" y="0" width="952" height="670" fill="white">
            <use xlink:href="#path-1"></use>
        </mask>
        <polygon id="path-3" points="0 67 104.103 67 104.103 0 0 0"></polygon>
    </defs>
    <g id="Desktop" stroke="none" stroke-width="1" fill="none" fill-rule="evenodd">
        <g id="0.-Landing-bienvenida" transform="translate(-110.000000, -461.000000)">
            <use id="Rectangle-288" stroke="#DCDCDC" mask="url(#mask-2)" stroke-width="2" fill="#FFFFFF" xlink:href="#path-1"></use>
            <path d="M52,105.992835 C52,103.235368 54.2372881,101 56.9941167,101 L360,101 L360,769 L56.9941167,769 C54.2359422,769 52,766.760375 52,764.007165 L52,105.992835 Z" id="side-bar" fill="#F4F4F4"></path>
            <g id="_tarjetas" transform="translate(76.000000, 404.333333)">
                <g id="Visa" transform="translate(37.000000, 59.000000)">
                    <path d="M98.203,67 L5.803,67 C2.603,67 0.003,64.7 0.003,61.9 L0.003,5.1 C-0.097,2.3 2.503,0 5.803,0 L98.303,0 C101.503,0 104.102,2.3 104.102,5.1 L104.102,61.8 C104.003,64.7 101.403,67 98.203,67 Z" id="Fill-1" fill="#A9ADAA"></path>
                    <mask id="mask-4" fill="white">
                        <use xlink:href="#path-3"></use>
                    </mask>
                    <g id="Clip-4"></g>
                    <polygon id="Fill-3" fill="#666666" mask="url(#mask-4)" points="0.003 20.8 104.003 20.8 104.003 8 0.003 8"></polygon>
                    <path d="M23.9027,31.8999 L9.6027,31.8999 C8.7027,31.8999 8.0027,31.1999 8.0027,30.2999 C8.0027,29.3999 8.7027,28.6999 9.6027,28.6999 L23.9027,28.6999 C24.8027,28.6999 25.5027,29.3999 25.5027,30.2999 C25.5027,31.1999 24.8027,31.8999 23.9027,31.8999" id="Fill-5" fill="#666666" mask="url(#mask-4)"></path>
                    <path d="M44.6029,31.8999 L30.3029,31.8999 C29.4029,31.8999 28.7029,31.1999 28.7029,30.2999 C28.7029,29.3999 29.4029,28.6999 30.3029,28.6999 L44.6029,28.6999 C45.5029,28.6999 46.2029,29.3999 46.2029,30.2999 C46.2029,31.1999 45.5029,31.8999 44.6029,31.8999" id="Fill-6" fill="#666666" mask="url(#mask-4)"></path>
                    <path d="M11.1029,39.9004 L9.5029,39.9004 C8.6029,39.9004 7.9029,39.2004 7.9029,38.2994 C7.9029,37.4004 8.6029,36.7004 9.5029,36.7004 L11.1029,36.7004 C12.0029,36.7004 12.7029,37.4004 12.7029,38.2994 C12.7029,39.2004 12.0029,39.9004 11.1029,39.9004" id="Fill-7" fill="#666666" mask="url(#mask-4)"></path>
                    <path d="M20.8026,39.9004 L17.6026,39.9004 C16.7026,39.9004 16.0026,39.2004 16.0026,38.2994 C16.0026,37.4004 16.7026,36.7004 17.6026,36.7004 L20.8026,36.7004 C21.7026,36.7004 22.4026,37.4004 22.4026,38.2994 C22.3026,39.2004 21.6026,39.9004 20.8026,39.9004" id="Fill-8" fill="#666666" mask="url(#mask-4)"></path>
                    <path d="M28.8026,39.9004 L27.2026,39.9004 C26.3026,39.9004 25.6026,39.2004 25.6026,38.2994 C25.6026,37.4004 26.3026,36.7004 27.2026,36.7004 L28.8026,36.7004 C29.7026,36.7004 30.4026,37.4004 30.4026,38.2994 C30.2026,39.2004 29.5026,39.9004 28.8026,39.9004" id="Fill-9" fill="#666666" mask="url(#mask-4)"></path>
                    <path d="M38.203,39.9004 L35.003,39.9004 C34.103,39.9004 33.403,39.2004 33.403,38.2994 C33.403,37.4004 34.103,36.7004 35.003,36.7004 L38.203,36.7004 C39.103,36.7004 39.803,37.4004 39.803,38.2994 C39.803,39.2004 39.103,39.9004 38.203,39.9004" id="Fill-10" fill="#666666" mask="url(#mask-4)"></path>
                    <path d="M44.6029,39.9004 C44.2029,39.9004 43.8029,39.7004 43.5029,39.4004 C43.2029,39.0994 43.0029,38.7004 43.0029,38.2994 C43.0029,37.9004 43.2029,37.5004 43.5029,37.2004 C44.1029,36.5994 45.2029,36.5994 45.8029,37.2004 C46.1029,37.5004 46.3029,37.9004 46.3029,38.2994 C46.3029,38.7004 46.1029,39.0994 45.8029,39.4004 C45.4029,39.7004 45.0029,39.9004 44.6029,39.9004" id="Fill-11" fill="#666666" mask="url(#mask-4)"></path>
                    <path d="M80.8026,54.2002 L78.9036,59.4002 L78.7026,58.4002 C78.3026,57.2002 77.2026,55.9002 76.0026,55.3002 L77.8026,61.9002 L79.9036,61.9002 L83.0026,54.2002 L80.8026,54.2002 Z M94.3026,58.9002 L95.1026,56.4002 L95.7026,58.9002 L94.3026,58.9002 Z M96.6026,54.2002 L95.1026,54.2002 C94.6026,54.2002 94.3026,54.3002 94.1026,54.8002 L91.2026,61.9002 L93.3026,61.9002 L93.9036,60.4002 L96.2026,60.4002 L96.5026,61.9002 L98.3026,61.9002 L96.6026,54.2002 Z M89.6026,57.4002 C88.9036,57.0992 88.5026,56.8002 88.5026,56.5002 C88.5026,56.2002 88.9036,55.9002 89.6026,55.9002 C90.2026,55.9002 90.7026,56.0002 91.1026,56.2002 L91.3026,56.3002 L91.6026,54.7002 C91.2026,54.5002 90.6026,54.4002 89.8026,54.4002 C87.8026,54.4002 86.5026,55.4002 86.5026,56.9002 C86.5026,58.0002 87.5026,58.5992 88.2026,58.9002 C89.0026,59.3002 89.2026,59.5002 89.2026,59.8002 C89.2026,60.3002 88.6026,60.5002 88.0026,60.5002 C87.2026,60.5002 86.8026,60.4002 86.1026,60.0992 L85.8026,60.0002 L85.5026,61.7002 C86.0026,61.9002 86.8026,62.0992 87.7026,62.0992 C89.8026,62.0992 91.1026,61.0992 91.1026,59.5002 C91.2026,58.5002 90.8026,57.9002 89.6026,57.4002 L89.6026,57.4002 Z M83.6026,54.2002 L82.4036,61.9002 L84.4036,61.9002 L85.6026,54.2002 L83.6026,54.2002 Z" id="Fill-12" fill="#2394BC" mask="url(#mask-4)"></path>
                    <path d="M77.9032,55.2002 C77.7032,54.5992 77.3022,54.2002 76.6022,54.2002 L73.5032,54.2002 L73.5032,54.3002 C75.9032,54.9002 77.9032,56.7002 78.6022,58.4002 L77.9032,55.2002 Z" id="Fill-13" fill="#EFC75E" mask="url(#mask-4)"></path>
                </g>
            </g>
        </g>
    </g>
</svg>