<?xml version="1.0" encoding="utf-8"?>
<!-- Generator: Adobe Illustrator 21.0.2, SVG Export Plug-In . SVG Version: 6.00 Build 0)  -->
<svg version="1.1" id="Layer_1" xmlns="http://www.w3.org/2000/svg" xmlns:xlink="http://www.w3.org/1999/xlink" x="0px" y="0px"
	 viewBox="0 0 27 27" style="enable-background:new 0 0 27 27;" xml:space="preserve">
<title>-g-herramienta</title>
<desc>Created with Sketch.</desc>
<g>
	<path d="M25.7,10.4L23,10c-0.1-0.3-0.2-0.5-0.3-0.7L24.4,7c0.5-0.6,0.4-1.6-0.2-2.2l-2-2c-0.3-0.3-0.8-0.5-1.3-0.5
		c-0.3,0-0.7,0.1-0.9,0.3l-2.2,1.7C17.5,4.2,17.3,4.1,17,4l-0.4-2.7C16.5,0.5,15.8,0,14.9,0h-2.8c-0.9,0-1.6,0.5-1.7,1.3L10,4
		C9.7,4.1,9.5,4.2,9.2,4.3L7,2.6C6.8,2.4,6.4,2.3,6.1,2.3c-0.5,0-0.9,0.2-1.3,0.5l-2,2C2.3,5.4,2.2,6.3,2.6,7l1.7,2.2
		C4.2,9.5,4.1,9.7,4,10l-2.7,0.4C0.5,10.5,0,11.2,0,12.1v2.8c0,0.9,0.5,1.6,1.3,1.7L4,17c0.1,0.3,0.2,0.5,0.3,0.7l-1.7,2.2
		c-0.5,0.6-0.4,1.6,0.2,2.2l2,2c0.3,0.3,0.8,0.5,1.3,0.5c0.3,0,0.7-0.1,0.9-0.3l2.2-1.7c0.2,0.1,0.5,0.2,0.7,0.3l0.4,2.7
		c0.1,0.8,0.8,1.3,1.7,1.3h2.8c0.9,0,1.6-0.5,1.7-1.3l0.4-2.7c0.2-0.1,0.5-0.2,0.8-0.3l2.2,1.7c0.3,0.2,0.6,0.3,0.9,0.3
		c0.5,0,0.9-0.2,1.3-0.5l2-2c0.6-0.6,0.7-1.5,0.2-2.2l-1.7-2.2c0.1-0.2,0.2-0.5,0.3-0.8l2.7-0.4c0.8-0.1,1.3-0.8,1.3-1.7V12
		C27,11.2,26.5,10.5,25.7,10.4z M25.6,14.9h-0.1l-3.8,0.5l-0.2,0.5c-0.2,0.5-0.4,1-0.6,1.5l-0.3,0.5l2.3,3l0,0l-2,2l0,0l-3-2.2
		L17.4,21c-0.5,0.3-1,0.5-1.5,0.6l-0.5,0.2l-0.5,3.8v0.1h-2.8v-0.1l-0.5-3.8L11,21.5c-0.5-0.2-1-0.4-1.5-0.6L9,20.6l-3,2.2l0,0l-2-2
		l0,0l2.3-3L6,17.4c-0.2-0.4-0.4-0.9-0.6-1.5l-0.2-0.5l-3.8-0.5H1.3v-2.8h0.1l3.8-0.5L5.4,11c0.2-0.5,0.4-1,0.6-1.5L6.3,9L4,6l0,0
		l2-2l0,0l3,2.2L9.6,6c0.5-0.3,1-0.5,1.5-0.6l0.5-0.2l0.5-3.8V1.3h2.8v0.1l0.5,3.8L16,5.4c0.5,0.2,1,0.4,1.5,0.6L18,6.3l3-2.2l0,0
		l2,2l0,0l-2.3,3L21,9.5c0.2,0.4,0.4,0.9,0.6,1.5l0.2,0.5l3.8,0.5h0.1v2.9H25.6z"/>
	<path d="M13.5,7.5c-3.2,0-5.9,2.6-5.9,5.9c0,3.2,2.6,5.9,5.9,5.9c3.2,0,5.9-2.6,5.9-5.9S16.7,7.5,13.5,7.5z M13.5,17.9
		c-2.5,0-4.5-2-4.5-4.5s2-4.5,4.5-4.5s4.5,2,4.5,4.5C18,15.8,16,17.9,13.5,17.9z"/>
</g>
</svg>
