<?xml version="1.0" encoding="utf-8"?>
<!-- Generator: Adobe Illustrator 21.0.2, SVG Export Plug-In . SVG Version: 6.00 Build 0)  -->
<svg version="1.1" id="Layer_1" xmlns="http://www.w3.org/2000/svg" xmlns:xlink="http://www.w3.org/1999/xlink" x="0px" y="0px"
	 viewBox="0 0 28 28" style="enable-background:new 0 0 28 28;" xml:space="preserve">
<title>-g-ico_check</title>
<desc>Created with Sketch.</desc>
<g>
	<path d="M14,0C6.3,0,0,6.3,0,14s6.3,14,14,14s14-6.3,14-14S21.7,0,14,0z M14,26.9C6.9,26.9,1.1,21.1,1.1,14S6.9,1.1,14,1.1
		S26.9,6.9,26.9,14S21.1,26.9,14,26.9z"/>
	<path d="M20.6,8.3l-8.3,9.3l-5-4c-0.2-0.2-0.6-0.1-0.8,0.1c-0.2,0.2-0.1,0.6,0.1,0.8l5.4,4.3c0.1,0.1,0.2,0.1,0.3,0.1
		s0.3-0.1,0.4-0.2L21.4,9c0.2-0.2,0.2-0.6,0-0.8C21.1,8,20.8,8,20.6,8.3z"/>
</g>
</svg>
