<?xml version="1.0" encoding="utf-8"?>
<!-- Generator: Adobe Illustrator 21.0.2, SVG Export Plug-In . SVG Version: 6.00 Build 0)  -->
<svg version="1.1" id="Layer_1" xmlns="http://www.w3.org/2000/svg" xmlns:xlink="http://www.w3.org/1999/xlink" x="0px" y="0px"
	 viewBox="0 0 24 24" style="enable-background:new 0 0 24 24;" xml:space="preserve">
<style type="text/css">
	.st0{fill:#FFFFFF;}
</style>
<title>-g-ico_face</title>
<desc>Created with Sketch.</desc>
<g id="Symbols">
	<g id="Footer" transform="translate(-1265.000000, -70.000000)">
		<g id="face">
			<g transform="translate(1265.000000, 70.000000)">
				<path id="_x2D_g-Fill-1" class="st0" d="M15.1,7.3h-1.3c-1,0-1.2,0.5-1.2,1.2V10H15l-0.3,2.4h-2.1v6.3h-2.5v-6.3h-2V10h2V8.3
					c0-2.1,1.3-3.2,3.1-3.2c0.9,0,1.7,0.1,1.9,0.1V7.3z M12,0C5.4,0,0,5.4,0,12s5.4,12,12,12s12-5.4,12-12S18.6,0,12,0L12,0z"/>
			</g>
		</g>
	</g>
</g>
</svg>
