<?xml version="1.0" encoding="utf-8"?>
<!-- Generator: Adobe Illustrator 21.0.2, SVG Export Plug-In . SVG Version: 6.00 Build 0)  -->
<svg version="1.1" id="Layer_1" xmlns="http://www.w3.org/2000/svg" xmlns:xlink="http://www.w3.org/1999/xlink" x="0px" y="0px"
	 viewBox="0 0 28 27" style="enable-background:new 0 0 28 27;" xml:space="preserve">
<title>-g-ico_people</title>
<desc>Created with Sketch.</desc>
<path d="M19.9,13.7l-0.5-0.2l0.3-0.4c1.3-1.4,2-3.3,2-5.2C21.8,3.5,18.3,0,14,0S6.2,3.5,6.2,7.8c0,4.3,3.5,7.8,7.8,7.8
	c1.5,0,2.9-0.4,4.1-1.2l0.2-0.1l0.2,0.1c4.6,1.7,7.8,6,8.2,10.8l0,0.4H1.3l0-0.4c0.3-3.3,1.8-6.3,4.3-8.5c0.3-0.2,0.3-0.6,0.1-0.9
	c-0.1-0.1-0.3-0.2-0.4-0.2c0,0,0,0,0,0c-0.2,0-0.3,0.1-0.4,0.2C1.8,18.4,0,22.3,0,26.3C0,26.7,0.3,27,0.6,27h26.7
	c0.4,0,0.6-0.3,0.6-0.6C28,20.9,24.8,16,19.9,13.7z M14,14.4c-3.6,0-6.6-2.9-6.6-6.6c0-3.6,2.9-6.5,6.6-6.5s6.6,2.9,6.6,6.5
	C20.6,11.5,17.6,14.4,14,14.4z"/>
</svg>
