<?xml version="1.0" encoding="UTF-8" standalone="no"?>
<svg width="145px" height="23px" viewBox="0 0 145 23" version="1.1" xmlns="http://www.w3.org/2000/svg" xmlns:xlink="http://www.w3.org/1999/xlink">
    <!-- Generator: Sketch 41.2 (35397) - http://www.bohemiancoding.com/sketch -->
    <title>-g-Footer</title>
    <desc>Created with Sketch.</desc>
    <defs></defs>
    <g id="Symbols" stroke="none" stroke-width="1" fill="none" fill-rule="evenodd">
        <g id="Footer" transform="translate(-226.000000, -76.000000)" fill="#FFFFFF">
            <g id="LOGO" transform="translate(226.000000, 76.000000)">
                <g id="Group-2">
                    <path d="M67.4663212,20.6887118 L67.4663212,4 L77.5159054,4 L77.5159054,5.08232232 L68.7489965,5.08232232 L68.7489965,11.9835818 L75.2565141,11.9835818 L75.2565141,13.0426284 L68.7489965,13.0426284 L68.7489965,20.6887118 L67.4663212,20.6887118 Z M79.6636573,10.4124688 C79.9068569,10.1253998 80.173588,9.84803321 80.4638584,9.58036076 C80.7541289,9.31268831 81.0718526,9.07411427 81.4170391,8.86463148 C81.7622256,8.6551487 82.130942,8.48834083 82.5231994,8.36420289 C82.9154568,8.24006494 83.3351659,8.1779969 83.7823394,8.1779969 C83.9392423,8.1779969 84.0686853,8.1857554 84.1706722,8.20127264 C84.2726592,8.21678989 84.3354194,8.2323069 84.3589548,8.24782414 L84.3589548,9.22540559 C84.3040388,9.22540559 84.2452011,9.22152634 84.1824399,9.21376771 C84.1275239,9.21376771 84.0686861,9.21182809 84.005925,9.20794878 C83.9431638,9.20406947 83.884326,9.20212984 83.82941,9.20212984 C83.3743914,9.20212984 82.9487985,9.26807714 82.5526186,9.3999737 C82.1564386,9.53187027 81.7857609,9.70837627 81.4405744,9.92949699 C81.0953879,10.1506177 80.775703,10.4008295 80.4815099,10.6801399 C80.1873169,10.9594503 79.9147021,11.246515 79.6636573,11.5413426 L79.6636573,20.6887118 L78.4515881,20.6887118 L78.4515881,8.27109989 L79.0164359,8.27109989 C79.1498034,8.27109989 79.2576726,8.28467728 79.3400466,8.31183245 C79.4224207,8.33898763 79.4871422,8.39911604 79.5342131,8.4922195 C79.5812839,8.58532296 79.6146253,8.72303643 79.6342382,8.90536404 C79.6538511,9.08769165 79.6636573,9.33014495 79.6636573,9.63273119 L79.6636573,10.4124688 Z M93.2495777,19.0012201 C92.9828426,19.2727718 92.7082666,19.521044 92.4258413,19.746044 C92.1434159,19.971044 91.831576,20.1611274 91.4903121,20.3162999 C91.1490481,20.4714723 90.7705254,20.5917291 90.3547326,20.677074 C89.9389398,20.7624188 89.4721605,20.8050906 88.9543807,20.8050906 C88.3738398,20.8050906 87.8364552,20.7275055 87.3422109,20.5723331 C86.8479666,20.4171607 86.4204124,20.1882848 86.0595356,19.8856985 C85.6986588,19.5831123 85.4162378,19.2068248 85.2122639,18.7568247 C85.0082901,18.3068246 84.9063047,17.790884 84.9063047,17.2089874 C84.9063047,16.580539 85.0318252,16.0374437 85.2828699,15.579685 C85.5339146,15.1219263 85.8830185,14.7436992 86.3301919,14.4449922 C86.7773653,14.1462853 87.3088661,13.9251679 87.9247102,13.7816334 C88.5405543,13.6380989 89.2132656,13.5663327 89.9428644,13.5663327 C90.5547859,13.5663327 91.1294344,13.5954271 91.666827,13.6536168 C92.2042196,13.7118064 92.7317979,13.8068481 93.2495777,13.9387447 L93.2495777,11.7042728 C93.2495777,11.2232383 93.1750499,10.8159168 93.0259921,10.482296 C92.8769343,10.1486753 92.6670797,9.87906723 92.3964221,9.67346375 C92.1257645,9.46786028 91.8001958,9.31850905 91.4197061,9.22540559 C91.0392164,9.13230213 90.6214686,9.0857511 90.16645,9.0857511 C89.2328774,9.0857511 88.4483744,9.19049092 87.8129174,9.3999737 C87.1774604,9.60945649 86.6596884,9.86936642 86.2595859,10.1797113 L85.7535764,10.1797113 L85.7535764,9.20212984 C86.0046211,9.06247465 86.2831197,8.92864043 86.5890805,8.80062317 C86.8950412,8.67260592 87.2304163,8.56010759 87.5952156,8.46312482 C87.960015,8.36614205 88.3601116,8.28661737 88.7955173,8.22454839 C89.230923,8.16247942 89.703586,8.1314454 90.2135206,8.1314454 C90.8489776,8.1314454 91.4275486,8.19351344 91.9492509,8.31765139 C92.4709532,8.44178934 92.91812,8.64157085 93.2907645,8.91700192 C93.663409,9.19243299 93.9497526,9.55320349 94.1498039,9.99932423 C94.3498551,10.445445 94.4498793,10.99048 94.4498793,11.6344456 L94.4498793,20.6887118 L94.1203847,20.6887118 C93.9399463,20.6887118 93.7948133,20.6731948 93.6849812,20.6421603 C93.5751491,20.6111259 93.4868925,20.5509974 93.4202088,20.4617733 C93.353525,20.3725491 93.3084161,20.2484131 93.2848807,20.0893613 C93.2613452,19.9303096 93.2495777,19.7266488 93.2495777,19.4783729 L93.2495777,19.0012201 Z M89.1308957,19.8740606 C89.6329851,19.8740606 90.0840743,19.8236303 90.4841769,19.7227683 C90.8842794,19.6219062 91.2490733,19.4822531 91.5785695,19.3038048 C91.9080657,19.1253565 92.2061769,18.9119976 92.4729119,18.6637217 C92.7396469,18.4154458 92.9985329,18.1438981 93.2495777,17.8490705 L93.2495777,14.7999474 C92.7631785,14.6913267 92.2552128,14.6001643 91.7256653,14.5264574 C91.1961178,14.4527505 90.6293144,14.4158976 90.025238,14.4158976 C89.4682325,14.4158976 88.9524218,14.4663278 88.4777904,14.5671899 C88.0031589,14.668052 87.5932561,14.829041 87.2480696,15.0501617 C86.9028831,15.2712824 86.6322295,15.5525282 86.4361008,15.8939076 C86.2399722,16.235287 86.1419093,16.6426085 86.1419093,17.1158844 C86.1419093,17.6124362 86.2183983,18.0352747 86.3713787,18.3844127 C86.5243591,18.7335507 86.7342136,19.0186758 87.0009487,19.2397965 C87.2676837,19.4609172 87.5834462,19.6219062 87.9482455,19.7227683 C88.3130449,19.8236303 88.7072577,19.8740606 89.1308957,19.8740606 Z M98.7511136,10.2495385 C99.1041452,9.97022815 99.4865904,9.70255972 99.8984607,9.4465252 C100.310331,9.19049069 100.747691,8.96549403 101.210555,8.77152849 C101.673419,8.57756295 102.159811,8.42239284 102.669745,8.30601351 C103.17968,8.18963419 103.713142,8.1314454 104.270147,8.1314454 C104.709476,8.1314454 105.125262,8.18187568 105.51752,8.28273777 C105.909777,8.38359985 106.254958,8.56010584 106.553074,8.81226105 C106.85119,9.06441625 107.086541,9.40191124 107.259134,9.82475612 C107.431727,10.247601 107.518022,10.7848775 107.518022,11.4366017 L107.518022,20.6887118 L106.317721,20.6887118 L106.317721,11.5878941 C106.317721,11.0913423 106.252999,10.6840208 106.123554,10.3659173 C105.994109,10.0478138 105.817596,9.79760199 105.59401,9.61527438 C105.370423,9.43294677 105.105653,9.30687106 104.799692,9.23704346 C104.493732,9.16721587 104.16424,9.13230259 103.811209,9.13230259 C103.348345,9.13230259 102.891372,9.19049138 102.440276,9.30687071 C101.98918,9.42325003 101.549858,9.58035977 101.122298,9.77820462 C100.694737,9.97604947 100.280912,10.2010461 99.8808092,10.4532013 C99.4807067,10.7053565 99.1041452,10.9633268 98.7511136,11.22712 L98.7511136,20.6887118 L97.5390443,20.6887118 L97.5390443,8.27109989 L98.1038921,8.27109989 C98.2372596,8.27109989 98.3451288,8.28467728 98.4275028,8.31183245 C98.5098769,8.33898763 98.5745984,8.39523679 98.6216693,8.48058163 C98.6687402,8.56592647 98.7020816,8.69006255 98.7216944,8.85299361 C98.7413073,9.01592466 98.7511136,9.23316281 98.7511136,9.50471457 L98.7511136,10.2495385 Z M115.526071,20.7818148 C114.608188,20.7818148 113.78446,20.6344032 113.054861,20.3395756 C112.325263,20.044748 111.709428,19.6238491 111.207338,19.0768662 C110.705249,18.5298834 110.320842,17.8645916 110.054107,17.0809708 C109.787372,16.29735 109.654007,15.4167596 109.654007,14.4391733 C109.654007,13.461587 109.79914,12.5829362 110.08941,11.8031948 C110.379681,11.0234533 110.787622,10.3620407 111.313247,9.81893718 C111.838872,9.27583366 112.466475,8.858814 113.196073,8.56786569 C113.925672,8.27691737 114.725865,8.1314454 115.596677,8.1314454 C116.114456,8.1314454 116.577313,8.16635867 116.985261,8.23618627 C117.393208,8.30601386 117.756041,8.3971763 118.07377,8.50967632 C118.391498,8.62217633 118.668035,8.75019167 118.90339,8.89372617 C119.138744,9.03726067 119.346638,9.17885339 119.527076,9.31850858 L119.527076,10.2728143 L118.90339,10.2728143 C118.762177,10.1331591 118.591548,9.99156637 118.391496,9.84803187 C118.191445,9.70449737 117.958056,9.57648203 117.691321,9.46398201 C117.424585,9.351482 117.116668,9.26031956 116.767559,9.19049197 C116.41845,9.12066437 116.020315,9.0857511 115.573141,9.0857511 C114.874923,9.0857511 114.237514,9.20600793 113.660896,9.4465252 C113.084278,9.68704247 112.590041,10.0361752 112.17817,10.4939339 C111.7663,10.9516926 111.446615,11.5122446 111.219106,12.1756067 C110.991597,12.8389689 110.877844,13.5934835 110.877844,14.4391733 C110.877844,15.2926217 110.985713,16.0529552 111.201454,16.7201967 C111.417196,17.3874381 111.727075,17.9518694 112.1311,18.4135074 C112.535125,18.8751454 113.027401,19.2262178 113.607941,19.466735 C114.188482,19.7072523 114.843542,19.8275091 115.573141,19.8275091 C116.05954,19.8275091 116.49494,19.7828977 116.879352,19.6936736 C117.263764,19.6044494 117.603062,19.4919511 117.897255,19.3561752 C118.191448,19.2203993 118.44445,19.0671689 118.656269,18.8964792 C118.868088,18.7257895 119.048524,18.5589816 119.197581,18.3960506 L119.750662,18.3960506 L119.750662,19.3038048 C119.570223,19.4744945 119.352524,19.6471212 119.097556,19.8216902 C118.842589,19.9962592 118.540555,20.1553085 118.191446,20.298843 C117.842337,20.4423775 117.446163,20.5587551 117.002912,20.6479793 C116.559661,20.7372034 116.067386,20.7818148 115.526071,20.7818148 Z M122.157302,14.5206384 C122.157302,16.2740869 122.55936,17.5930328 123.363488,18.4775157 C124.167615,19.3619986 125.358099,19.8042334 126.934973,19.8042334 C127.437063,19.8042334 127.890113,19.7693201 128.294138,19.6994925 C128.698163,19.6296649 129.060996,19.5346232 129.382647,19.4143646 C129.704298,19.294106 129.984758,19.1563925 130.224035,19.0012201 C130.463312,18.8460476 130.665322,18.6869983 130.83007,18.5240672 L131.359614,18.5240672 L131.359614,19.3969078 C131.13995,19.5753561 130.886948,19.7460432 130.6006,19.9089743 C130.314252,20.0719053 129.984761,20.2193169 129.612117,20.3512135 C129.239472,20.48311 128.821724,20.5878499 128.35886,20.6654361 C127.895997,20.7430223 127.378225,20.7818148 126.805529,20.7818148 C125.864111,20.7818148 125.028615,20.6363429 124.299017,20.3453945 C123.569418,20.0544462 122.955544,19.6374266 122.457377,19.094323 C121.959211,18.5512195 121.580688,17.8936862 121.321798,17.1217033 C121.062908,16.3497205 120.933465,15.4827075 120.933465,14.5206384 C120.933465,13.5430521 121.072714,12.6605221 121.351217,11.873022 C121.62972,11.0855219 122.016088,10.4144112 122.510332,9.85966974 C123.004576,9.30492829 123.592954,8.8782105 124.275481,8.57950356 C124.958009,8.28079663 125.699365,8.1314454 126.49957,8.1314454 C127.268394,8.1314454 127.970524,8.24394373 128.605981,8.46894376 C129.241438,8.69394378 129.784707,9.04307652 130.235803,9.51635245 C130.686899,9.98962837 131.036003,10.5928522 131.283125,11.3260419 C131.530247,12.0592317 131.653806,12.9301239 131.653806,13.9387447 C131.653806,14.0628827 131.649884,14.1831395 131.642038,14.2995188 C131.634193,14.4158981 131.630271,14.4896039 131.630271,14.5206384 L122.157302,14.5206384 Z M126.49957,9.0391996 C125.919029,9.0391996 125.381644,9.13424129 124.8874,9.32432752 C124.393156,9.51441375 123.957756,9.79953882 123.581189,10.1797113 C123.204622,10.5598837 122.894744,11.0370318 122.651544,11.6111698 C122.408344,12.1853078 122.251444,12.8525393 122.180837,13.6128842 L130.453504,13.6128842 C130.429969,12.7827117 130.320139,12.0786273 130.12401,11.50061 C129.927881,10.9225927 129.659189,10.4512635 129.317925,10.0866083 C128.976661,9.72195307 128.566758,9.45622426 128.088204,9.2894139 C127.60965,9.12260353 127.080111,9.0391996 126.49957,9.0391996 Z M126.064166,7.02584733 L126.064166,6.65343535 L127.864619,4 L129.076688,4 L129.076688,4.47715285 L126.805529,7.02584733 L126.064166,7.02584733 Z M137.002362,20.7818148 C136.461047,20.7818148 135.980539,20.7449619 135.560824,20.671255 C135.141108,20.5975481 134.768469,20.5044461 134.442896,20.391946 C134.117322,20.279446 133.83294,20.1553099 133.58974,20.0195341 C133.346541,19.8837582 133.134725,19.749924 132.954286,19.6180274 L132.954286,18.6404459 L133.43676,18.6404459 C133.585818,18.7801011 133.768215,18.9216939 133.983957,19.0652284 C134.199698,19.2087629 134.452701,19.3387178 134.742971,19.4550972 C135.033242,19.5714765 135.360772,19.6665182 135.725571,19.7402251 C136.09037,19.813932 136.500273,19.8507849 136.955292,19.8507849 C138.116374,19.8507849 138.975404,19.621909 139.53241,19.1641503 C140.089415,18.7063916 140.367914,18.0469187 140.367914,17.1857117 C140.367914,16.8210564 140.312999,16.506837 140.203167,16.2430438 C140.093335,15.9792507 139.907015,15.7523144 139.644203,15.5622282 C139.38139,15.3721419 139.034248,15.211153 138.602764,15.0792564 C138.171281,14.9473598 137.637819,14.8309822 137.002362,14.7301202 C136.398286,14.6370167 135.855018,14.5090014 135.372541,14.3460703 C134.890064,14.1831393 134.4782,13.9736596 134.136936,13.7176251 C133.795672,13.4615906 133.532864,13.1454315 133.348503,12.7691383 C133.164142,12.3928452 133.071963,11.9409122 133.071963,11.413326 C133.071963,10.8779811 133.173948,10.4066519 133.377922,9.99932423 C133.581896,9.59199659 133.86824,9.24868273 134.236962,8.96937235 C134.605684,8.69006197 135.048928,8.48058233 135.566707,8.34092714 C136.084487,8.20127195 136.657174,8.1314454 137.284786,8.1314454 C137.739805,8.1314454 138.15363,8.15860017 138.526275,8.21291052 C138.898919,8.26722087 139.234294,8.33898705 139.53241,8.4282112 C139.830525,8.51743534 140.093334,8.61635629 140.320843,8.72497699 C140.548353,8.8335977 140.752323,8.94609602 140.932762,9.06247535 L140.932762,10.0400568 L140.450288,10.0400568 C140.277694,9.9004016 140.093336,9.77044664 139.897207,9.650188 C139.701079,9.52992937 139.479457,9.42712917 139.232334,9.34178433 C138.985212,9.25643949 138.704752,9.18855257 138.390947,9.13812153 C138.077141,9.08769049 137.716269,9.06247535 137.308322,9.06247535 C136.280607,9.06247535 135.50591,9.2506191 134.984208,9.62691225 C134.462506,10.0032054 134.201659,10.5676367 134.201659,11.320223 C134.201659,11.6771196 134.258535,11.9835805 134.37229,12.239615 C134.486044,12.4956496 134.672364,12.7148273 134.931254,12.897155 C135.190144,13.0794826 135.52748,13.2346527 135.943273,13.3626699 C136.359066,13.4906872 136.872915,13.6051251 137.484837,13.7059872 C138.143829,13.8068493 138.726322,13.9368043 139.232334,14.095856 C139.738346,14.2549078 140.163939,14.4643874 140.509126,14.7243012 C140.854312,14.9842151 141.11516,15.306193 141.291675,15.6902448 C141.468191,16.0742966 141.556448,16.5417465 141.556448,17.0926087 C141.556448,17.6667467 141.46623,18.1807476 141.285792,18.634627 C141.105353,19.0885064 140.828816,19.474492 140.456171,19.7925955 C140.083527,20.110699 139.610864,20.3550919 139.038168,20.5257816 C138.465472,20.6964713 137.786877,20.7818148 137.002362,20.7818148 Z" id="Francés"></path>
                    <path d="M51.5127371,4 L48.3674054,4 L43.3316062,20.5502295 L45.8963967,20.5502295 L46.9775258,16.9865918 L52.9591874,16.9865918 L54.0460993,20.5502295 L58.505883,20.5502295 L53.5135804,5.67990671 C53.0574947,4.31964505 52.8012922,4 51.5127371,4 L51.5127371,4 Z M47.6971053,14.5505627 L49.947614,6.99717813 L52.2270366,14.5505627 L47.6971053,14.5505627 L47.6971053,14.5505627 Z" id="Fill-8"></path>
                    <path d="M42.4358873,4 L38.6802811,16.5708827 L35.5212912,6.15692278 C34.9289964,4.29126422 34.6280192,4 33.4914742,4 L30.5544041,4 L35.9986858,20.5502295 L39.9965482,20.5502295 L45.0689297,4 L42.4358873,4" id="Fill-11"></path>
                    <path d="M28.4551478,9.28833922 C30.1470171,6.75247403 28.9826984,4 25.6347811,4 L18.4870466,4 L18.4870466,20.5502295 L25.3797733,20.5502295 C31.4410942,20.5502295 33.2562089,13.4276659 27.6502949,10.4866385 L28.4551478,9.28833922 Z M23.5125548,18.3401622 L22.3467331,18.3401622 L22.3467331,6.15623103 L24.453679,6.15623103 C25.4681994,6.15623103 26.3431919,7.00042417 26.3431919,8.02028025 C26.3431919,8.38019972 26.2768097,8.71534945 25.9296183,9.21832679 L24.564149,11.2858417 C25.9929945,11.6308488 26.9478961,12.7298164 26.9478961,14.7819134 C26.9478961,17.2773382 25.4681994,18.3401622 23.5125548,18.3401622 L23.5125548,18.3401622 Z" id="Fill-9"></path>
                    <path d="M14.1591925,10.4866385 L14.957604,9.28833922 C16.6563573,6.75247403 15.4925498,4 12.1366168,4 L5,4 L5,20.5502295 L11.8916838,20.5502295 C17.9453861,20.5502295 19.7773749,13.4276659 14.1591925,10.4866385 L14.1591925,10.4866385 Z M10.0226295,18.3401622 L8.86658573,18.3401622 L8.86658573,6.15623103 L10.9627916,6.15623103 C11.9785874,6.15623103 12.8606468,7.00042417 12.8606468,8.02028025 C12.8606468,8.38019972 12.7950308,8.71534945 12.442157,9.21832679 L11.0692298,11.2858417 C12.5025137,11.6308488 13.4561997,12.7298164 13.4561997,14.7819134 C13.4561997,17.2773382 11.9785874,18.3401622 10.0226295,18.3401622 L10.0226295,18.3401622 Z" id="Fill-10"></path>
                </g>
            </g>
        </g>
    </g>
</svg>