<?xml version="1.0" encoding="utf-8"?>
<!-- Generator: Adobe Illustrator 21.0.2, SVG Export Plug-In . SVG Version: 6.00 Build 0)  -->
<svg version="1.1" id="Layer_1" xmlns="http://www.w3.org/2000/svg" xmlns:xlink="http://www.w3.org/1999/xlink" x="0px" y="0px"
	 viewBox="0 0 27 27" style="enable-background:new 0 0 27 27;" xml:space="preserve">
<title>-g-Paper</title>
<desc>Created with Sketch.</desc>
<g>
	<path d="M3.8,15.2c-0.2,0-0.4,0.2-0.4,0.4S3.6,16,3.8,16h8.7c0.2,0,0.4-0.2,0.4-0.4s-0.2-0.4-0.4-0.4H3.8z"/>
	<path d="M20.3,20.4v5.3c0,0.2-0.2,0.4-0.4,0.4H1.3c-0.2,0-0.4-0.2-0.4-0.4V1.3C0.8,1,1,0.8,1.3,0.8h13.9v4.6c0,0.2,0.2,0.4,0.4,0.4
		h4.6v6l0.1-0.1v-0.1l0.7-1.4V5.5c0-0.1,0-0.2-0.1-0.3l-5.1-5.1C15.8,0,15.7,0,15.6,0H1.3C0.6,0,0,0.6,0,1.3v24.5
		C0,26.4,0.6,27,1.3,27h18.6c0.7,0,1.3-0.6,1.3-1.3v-6.9L20.5,20L20.3,20.4z M16,1.4L19.6,5H16V1.4z"/>
	<path d="M17.7,13.1c0-0.2-0.2-0.4-0.4-0.4H3.8c-0.2,0-0.4,0.2-0.4,0.4s0.2,0.4,0.4,0.4h13.5C17.5,13.5,17.7,13.3,17.7,13.1z"/>
	<path d="M17.3,10.1H3.8c-0.2,0-0.4,0.2-0.4,0.4s0.2,0.4,0.4,0.4h13.5c0.2,0,0.4-0.2,0.4-0.4C17.7,10.3,17.5,10.1,17.3,10.1z"/>
	<path d="M26.4,7.5C26.3,7.5,26.3,7.5,26.4,7.5l0.4-0.9c0.1-0.2,0-0.5-0.2-0.6l-0.3-0.1L26.8,5c0.1-0.2,0-0.5-0.2-0.6
		c-0.1,0-0.1-0.1-0.2-0.1c-0.2,0-0.3,0.1-0.4,0.2l-0.5,0.9l-0.1-0.1c-0.1,0-0.1-0.1-0.2-0.1c-0.2,0-0.3,0.1-0.4,0.2l-3.6,6.7l0,0
		l0,0l2.1,1.1l2.6-4.9c0.2,0.5,0.4,1.3,0.1,2l-2.2,4.1c-0.1,0.2,0,0.5,0.2,0.6c0.1,0,0.1,0.1,0.2,0.1c0.2,0,0.3-0.1,0.4-0.2l2.2-4.1
		C27.5,9.3,26.4,7.5,26.4,7.5z"/>
	<path d="M20.6,13l-0.4,0.7l-2.6,4.8l0,0c-0.6,1.2-0.9,3-1,3.8c-0.1,0-0.2,0-0.3,0.1c0,0-0.1,0-0.2,0s-0.3,0.1-0.4,0.1
		c-0.5,0.1-1.1,0.2-1.7,0.2c-0.8,0-1.2-0.3-1.2-0.8c0-0.1,0-0.2,0.1-0.3c0.1-0.2,0.2-0.5,0-0.7c-0.1-0.1-0.2-0.1-0.3-0.1
		c-0.2,0-0.5,0.1-0.6,0.2c-0.5,0.2-0.9,0.5-1.3,0.9c-0.1,0.1-0.2,0.2-0.4,0.3C9.9,22.6,9.4,23,9,23.1c-0.1,0-0.2,0-0.2-0.1
		c-0.1-0.1-0.1-0.5,0.8-1.9l0,0c0,0,0.1-0.1,0.1-0.2c0.5-0.8,0.8-1.3,0.6-1.6c-0.1-0.1-0.2-0.1-0.3-0.1c-0.5,0-1.4,0.6-1.8,0.8l0,0
		c0,0-0.1,0-0.1,0.1c-0.7,0.4-1.3,0.9-1.9,1.3c-0.4,0.3-0.9,0.7-1.4,1c-0.4,0.3-0.7,0.4-0.8,0.4c-0.2,0-0.2-0.1-0.3-0.3
		c0-0.3,0.1-0.6,0.3-0.9c0.4-0.4,0.9-0.8,1.3-0.8c0.2,0,0.5-0.3,0.5-0.5c0-0.1,0-0.1-0.2-0.1c-1.1,0.1-2,1-2.5,1.8
		c-0.3,0.5-0.2,0.8-0.1,1c0.1,0.2,0.4,0.3,0.7,0.3c0.2,0,0.4-0.1,0.6-0.1c0.9-0.4,1.6-1,2.4-1.6l0,0c0.4-0.3,0.8-0.6,1.2-0.9
		c0.2-0.1,1.4-0.8,1.7-0.8c0,0.2-0.3,0.6-0.4,0.8l0,0c-0.1,0.1-0.1,0.1-0.1,0.2c0,0.1,0,0.2-0.1,0.3v0.1c-0.4,0.6-1,1.4-0.8,2.1
		c0.1,0.2,0.2,0.3,0.5,0.3c0.4,0,1-0.3,1.8-1h0.1c0.9-0.7,1.5-1.2,1.8-1.2l0,0l0,0c0,0.2,0,0.3-0.1,0.4c-0.1,0.3-0.2,0.7,0.3,1.1
		c0.3,0.3,0.7,0.4,1.3,0.4c0.5,0,1.2-0.1,1.9-0.3c0.1,0,0.3-0.1,0.4-0.1c0,0,0,0,0.1,0h0.1c0.1,0,0.2-0.1,0.3-0.1
		c0,0,2.3-1.6,3.1-3.2l0,0l0.5-1l0.8-1.6l1.6-3l-1.6-0.9L20.6,13z"/>
	<path d="M3.8,5.9h8.4c0.2,0,0.4-0.2,0.4-0.4c0-0.2-0.2-0.4-0.4-0.4H3.8c-0.2,0-0.4,0.2-0.4,0.4C3.4,5.7,3.6,5.9,3.8,5.9z"/>
	<path d="M17.3,7.6H3.8C3.6,7.6,3.4,7.8,3.4,8s0.2,0.4,0.4,0.4h13.5c0.2,0,0.4-0.2,0.4-0.4C17.7,7.8,17.5,7.6,17.3,7.6z"/>
</g>
</svg>
