<?xml version="1.0" encoding="utf-8"?>
<!-- Generator: Adobe Illustrator 21.0.2, SVG Export Plug-In . SVG Version: 6.00 Build 0)  -->
<svg version="1.1" id="Layer_1" xmlns="http://www.w3.org/2000/svg" xmlns:xlink="http://www.w3.org/1999/xlink" x="0px" y="0px"
	 viewBox="0 0 24 24" style="enable-background:new 0 0 24 24;" xml:space="preserve">
<style type="text/css">
	.st0{fill:#FFFFFF;}
</style>
<title>-g-Footer</title>
<desc>Created with Sketch.</desc>
<g id="Symbols">
	<g id="Footer" transform="translate(-1303.000000, -70.000000)">
		<g id="Page-1" transform="translate(1303.000000, 70.000000)">
			<g id="Group-3">
				<path id="_x2D_g-Fill-1" class="st0" d="M18.5,9.6c0,0.1,0,0.2,0,0.4c0,3.8-3.1,8.1-8.8,8.1c-1.7,0-3.4-0.5-4.7-1.3
					c0.2,0,0.5,0,0.7,0c1.4,0,2.8-0.5,3.8-1.2c-1.4,0-2.5-0.9-2.9-2c0.2,0,0.4,0,0.6,0c0.3,0,0.4,0,0.6-0.1
					c-1.4-0.3-2.7-1.4-2.7-2.8v0c0,0.2,1.1,0.3,1.6,0.4C6,10.6,5.5,9.7,5.5,8.7c0-0.5,0.2-1,0.5-1.4c1.5,1.7,3.8,2.9,6.4,3
					c0-0.2-0.1-0.4-0.1-0.7c0-1.6,1.4-2.9,3.1-2.9c0.9,0,1.7,0.3,2.3,0.9c0.7-0.1,1.4-0.4,2-0.7c-0.2,0.7-0.7,1.2-1.4,1.6
					c0.6-0.1,1.2-0.2,1.8-0.4C19.6,8.6,19.1,9.2,18.5,9.6 M12,0C5.4,0,0,5.4,0,12c0,6.6,5.4,12,12,12c6.6,0,12-5.4,12-12
					C24,5.4,18.6,0,12,0"/>
			</g>
		</g>
	</g>
</g>
</svg>
