<?xml version="1.0" encoding="utf-8"?>
<!-- Generator: Adobe Illustrator 21.0.2, SVG Export Plug-In . SVG Version: 6.00 Build 0)  -->
<svg version="1.1" id="Layer_1" xmlns="http://www.w3.org/2000/svg" xmlns:xlink="http://www.w3.org/1999/xlink" x="0px" y="0px"
	 viewBox="0 0 24 24" style="enable-background:new 0 0 24 24;" xml:space="preserve">
<style type="text/css">
	.st0{fill:#FFFFFF;}
</style>
<title>-g-youtube</title>
<desc>Created with Sketch.</desc>
<g id="Symbols">
	<g id="Footer" transform="translate(-1340.000000, -70.000000)">
		<g id="Group-3">
			<g transform="translate(1340.000000, 70.000000)">
				<path id="_x2D_g-Combined-Shape" class="st0" d="M10.4,13.9l4.1-2.1l-4.1-2.2L10.4,13.9z M19.6,12.5c0,1.2-0.1,2.5-0.1,2.5
					s-0.1,1.1-0.6,1.5c-0.6,0.6-1.2,0.6-1.5,0.6c-2.1,0.2-5.4,0.2-5.4,0.2s-4,0-5.2-0.2c-0.3-0.1-1.1,0-1.7-0.7
					C4.6,16.1,4.5,15,4.5,15s-0.2-1.2-0.2-2.5v-1.2c0-1.2,0.2-2.5,0.2-2.5s0.1-1.1,0.6-1.5c0.6-0.6,1.2-0.6,1.5-0.6
					C8.7,6.6,12,6.6,12,6.6h0c0,0,3.2,0,5.4,0.1c0.3,0,1,0,1.5,0.6c0.5,0.5,0.6,1.5,0.6,1.5s0.1,1.2,0.1,2.5V12.5z M12,0
					C5.4,0,0,5.4,0,12c0,6.6,5.4,12,12,12s12-5.4,12-12C24,5.4,18.6,0,12,0L12,0z"/>
			</g>
		</g>
	</g>
</g>
</svg>
